<svg xmlns="http://www.w3.org/2000/svg" width="144.194" height="89.4" viewBox="0 0 144.194 89.4"><g transform="translate(6.008 6.008)" fill="#2fab65"><path d="M 132.8790435791016 76.40322875976563 L 0.5000051259994507 76.40322875976563 L 0.5000051259994507 0.4999977052211761 L 132.8790435791016 0.4999977052211761 L 132.8790435791016 76.40322875976563 Z" stroke="none"/><path d="M 1 1 L 1 75.90322875976563 L 132.3790435791016 75.90322875976563 L 132.3790435791016 1 L 1 1 M 0 0 L 133.3790435791016 0 L 133.3790435791016 76.90322875976563 L 0 76.90322875976563 L 0 0 Z" stroke="none" fill="#707070"/></g><path d="M9.15,9.688a62.932,62.932,0,0,0,8.787-.751c-.076.977-.226,3.981-.226,9.689v2.553c2.1-1.728,3.831-2.629,5.934-2.629a6.185,6.185,0,0,1,5.407,2.779,11.784,11.784,0,0,1,1.5,6.084c0,6.984-3.3,10.965-9.989,10.965A12.6,12.6,0,0,1,15.308,37.1c-.9.3-2.1.9-3.3,1.277l-.376-.226c.076-2.028.076-5.858.076-11.04V17.5c0-2.4-.076-4.055-.15-5.482-.076-.977-.3-1.127-2.553-1.127ZM20.566,36.95c2.553,0,3.755-3.08,3.755-8.787a12.4,12.4,0,0,0-1.051-5.557,2.708,2.708,0,0,0-2.4-1.5,3.459,3.459,0,0,0-2.779,1.652c-.375.526-.525.977-.525,6.909,0,4.882.226,5.032.526,5.633A2.7,2.7,0,0,0,20.566,36.95Zm23.131.977c-1.578,0-3.154-.151-5.633-.151-2.628,0-3.905.151-5.181.151V36.65c2.1-.076,2.4-.451,2.479-1.277.075-.9.15-2.328.15-4.656V25.91c0-1.953,0-3.529-.076-4.206s-.376-.9-2.329-.826V19.6a76.408,76.408,0,0,0,8.337-.826c-.076.977-.15,2.779-.15,6.909v5.183c0,2.4.076,3.455.15,4.506s.376,1.2,2.253,1.426ZM38.063,10.064a2.829,2.829,0,0,1,3.08,3.154,2.928,2.928,0,0,1-3.23,2.93,2.8,2.8,0,0,1-2.928-2.93,2.977,2.977,0,0,1,3.08-3.154Zm7.586-.376a55.378,55.378,0,0,0,8.187-.751q-.152,4.655-.151,9.313v9.388c1.428-.376,4.506-4.131,5.708-6.308.226-.451.226-.677-.375-.677l-1.652-.15V19.226C60.144,19.3,63,19.151,65.852,19v1.277c-2.1.226-2.93.376-3.756,1.051a35.139,35.139,0,0,0-3.6,3.755,110.078,110.078,0,0,0,6.084,10.664,2.094,2.094,0,0,0,1.878.9l1.05.076L67.428,38a55.673,55.673,0,0,0-8.337.451c-.9-2.1-3.6-7.21-4.43-8.787-.451-.826-.677-1.126-.977-1.051,0,3.08-.075,4.582.076,6.759.076.977.3,1.277,2.329,1.352V38c-1.428,0-2.93-.15-5.407-.15-2.93,0-4.206.15-5.333.15V36.724c1.953-.075,2.253-.449,2.329-1.2.075-.9.149-2.854.149-6.759V19.076c0-3.08,0-5.407-.074-7.36q0-.676-.9-.677H45.573Zm-18.1,46.788c-1.277,4.055-3.755,6.008-7.886,6.008-3.53,0-5.783-.977-7.36-3.08a10.857,10.857,0,0,1-1.8-6.533c0-5.783,3.53-10.214,9.989-10.214,3.905,0,6.759,1.8,6.759,4.732a2.824,2.824,0,0,1-3,2.853,3.408,3.408,0,0,1-1.5-.375,1.173,1.173,0,0,1-.526-1.352,11.313,11.313,0,0,0,.226-1.578c0-1.877-.677-2.778-2.1-2.778-2.329,0-3.53,3.38-3.53,8.036a12.445,12.445,0,0,0,.9,5.256,3.915,3.915,0,0,0,3.755,2.7c2.253,0,3.681-1.276,4.732-4.206Zm4.28-5.482a41.958,41.958,0,0,0-.226-5.258.791.791,0,0,0-.9-.75H29.352V43.709a31.67,31.67,0,0,0,7.51-.9l.226.15c.15.9.3,3.08.376,4.432h.149c.978-2.629,2.329-4.732,5.108-4.732a2.83,2.83,0,0,1,2.779,3,2.962,2.962,0,0,1-2.629,3.23,1.454,1.454,0,0,1-1.5-.752c-.375-.826-.6-1.276-1.351-1.276-.827,0-1.277.751-1.8,1.953a7.973,7.973,0,0,0-.376,2.7c0,4.281,0,6.685.076,7.736s.449,1.351,3.453,1.426l-.075,1.277c-2.1-.076-3.981-.151-6.158-.151-2.253,0-3.905.076-5.783.151l.225-1.277c1.8-.076,2.253-.3,2.253-1.051.076-1.051.15-3.08.15-5.407v-3.23h-.15ZM57.29,47.54c0-2.254-.752-3.456-2.254-3.456-1.727,0-2.552.977-2.552,2.779a8.383,8.383,0,0,0,.149,1.428,1.07,1.07,0,0,1-.449,1.126,4.1,4.1,0,0,1-2.1.677c-1.428,0-2.629-.678-2.629-2.329,0-2.4,3.53-5.107,8.487-5.107,4.054,0,5.857,1.652,6.533,2.7a3.774,3.774,0,0,1,.6,2.028V58.429c0,1.277.376,1.578.827,1.578.6,0,1.276-.977,1.577-2.629l1.277.6c-.677,3.23-2.629,4.582-5.333,4.582-2.329,0-3.6-.977-3.981-2.93-1.8,1.8-3.679,2.93-5.632,2.93-3.154,0-5.257-2.1-5.257-5.559a3.882,3.882,0,0,1,2.479-3.98c2.552-1.127,6.383-2.253,8.26-3.6V47.539Zm-4.732,8.336c0,1.652.677,3.455,2.329,3.455a2.237,2.237,0,0,0,2.1-1.5,5.579,5.579,0,0,0,.225-1.8V50.919c-.827.526-2.1,1.127-3.08,1.728A3.332,3.332,0,0,0,52.558,55.876Zm14.87-12.541,2.4.074v-1.2c.076-3.154.827-5.483,2.479-7.135a7.422,7.422,0,0,1,5.482-2.253c3.08,0,4.732,1.5,4.732,3.455,0,1.428-1.2,2.4-2.855,2.4a1.419,1.419,0,0,1-1.5-1.5c0-1.577-.225-2.853-1.351-2.853-.752,0-1.2.675-1.353,1.953a68.2,68.2,0,0,0,.226,6.984H79.37l-.226,1.5-3.455.226c-.076,1.426-.076,3.905-.076,6.834,0,2.779,0,5.257.076,7.21.076.977.226,1.352,1.051,1.428a20.023,20.023,0,0,0,2.028.149l-.153,1.277c-1.426,0-3.679-.15-5.632-.15-2.028,0-4.432.15-5.783.15l.076-1.277c1.953-.075,2.253-.3,2.329-1.126.149-1.277.149-3.23.149-5.858V44.911l-2.552-.15.225-1.428Z" transform="translate(21.04 9.011)"/><path d="M81.243,38.685l-.151,1.426-4.581.3c0,1.578-.076,3.905-.076,7.059,0,3.3,0,5.557.151,6.909.074.977.449,1.428,1.2,1.428,1.577,0,2.552-1.728,2.928-3.3h.6l.526,1.727c-.9,2.179-3.155,3.681-6.46,3.681a5.5,5.5,0,0,1-4.13-1.5,4.138,4.138,0,0,1-.751-2.7c0-3.08.15-9.989.15-13.293l-2.4-.226.15-1.426h2.253c.076-1.428.076-3.08.076-4.582A20.756,20.756,0,0,0,76.361,32l.451.076q-.2,3.338-.226,6.683h4.657v-.076Z" transform="translate(32.986 13.661)"/><path d="M136.984,7.21V82.19H7.21V7.21ZM144.194,0H0V89.4H144.194Z"/></svg>