<svg xmlns="http://www.w3.org/2000/svg" xmlns:xlink="http://www.w3.org/1999/xlink" width="41" height="40" viewBox="0 0 41 40"><defs><clipPath id="a"><rect width="41" height="40" transform="translate(71.5 61)" fill="#484b4d"/></clipPath></defs><g transform="translate(-71.5 -61)" clip-path="url(#a)"><path d="M36.226,27.951a8.275,8.275,0,0,1-8.275,8.275h-15.9a8.275,8.275,0,0,1-8.275-8.275v-15.9a8.275,8.275,0,0,1,8.275-8.275h15.9a8.275,8.275,0,0,1,8.275,8.275ZM40,12.047A12.049,12.049,0,0,0,27.95,0H12.05A12.048,12.048,0,0,0,0,12.047v15.9A12.05,12.05,0,0,0,12.05,40h15.9A12.05,12.05,0,0,0,40,27.95ZM20.068,26.585a6.327,6.327,0,1,1,6.327-6.327,6.335,6.335,0,0,1-6.327,6.327Zm0-16.2a9.878,9.878,0,1,0,9.879,9.877,9.889,9.889,0,0,0-9.879-9.877ZM30.523,7.364a2.352,2.352,0,1,0,2.352,2.352,2.352,2.352,0,0,0-2.352-2.352Z" transform="translate(72 61)" fill="#2fab65"/></g></svg>