<svg xmlns="http://www.w3.org/2000/svg" xmlns:xlink="http://www.w3.org/1999/xlink" width="41" height="40" viewBox="0 0 41 40"><defs><clipPath id="a"><rect width="41" height="40" transform="translate(142 61)" fill="#484b4d" stroke="#000" stroke-width="2"/></clipPath></defs><g transform="translate(-142 -61)" clip-path="url(#a)"><path d="M40.846,7.892a16.876,16.876,0,0,1-4.141,1.183c.666-.113,1.65-1.32,2.044-1.809a7.619,7.619,0,0,0,1.379-2.511c.036-.072.064-.161-.008-.217a.24.24,0,0,0-.22.019,21.162,21.162,0,0,1-4.919,1.883.331.331,0,0,1-.34-.09,3.974,3.974,0,0,0-.429-.441A8.706,8.706,0,0,0,31.829,4.45a8.3,8.3,0,0,0-3.655-.589,8.746,8.746,0,0,0-3.468.98,8.946,8.946,0,0,0-2.8,2.283,8.588,8.588,0,0,0-1.671,3.347A9.107,9.107,0,0,0,20.149,14c.028.2.01.224-.168.2-6.76-1-12.359-3.422-16.906-8.6-.2-.225-.3-.225-.466.017C.619,8.6,1.584,13.389,4.069,15.744c.332.314.671.628,1.039.914a8.606,8.606,0,0,1-3.262-.914c-.2-.124-.3-.053-.314.17a5.112,5.112,0,0,0,.054.969,8.67,8.67,0,0,0,5.343,6.911,5.049,5.049,0,0,0,1.084.331,9.661,9.661,0,0,1-3.2.1c-.233-.046-.323.07-.233.295C5.987,28.357,9.026,29.5,11.3,30.148c.3.054.61.054.915.126-.018.027-.036.027-.054.054-.756,1.151-3.372,2.008-4.591,2.434A16.457,16.457,0,0,1,.6,33.653c-.374-.055-.454-.051-.555,0s-.013.154.108.25c.474.314.958.592,1.452.861a23,23,0,0,0,4.661,1.864c8.376,2.313,17.809.614,24.1-5.635,4.937-4.907,6.668-11.673,6.668-18.45,0-.264.313-.41.5-.551A16.2,16.2,0,0,0,40.8,8.582a.992.992,0,0,0,.2-.653V7.892C41,7.785,41.013,7.817,40.846,7.892Z" transform="translate(142 60.271)" fill="#2fab65" fill-rule="evenodd"/></g></svg>